<svg version="1.2" baseProfile="tiny-ps" xmlns="http://www.w3.org/2000/svg" viewBox="0 0 641 251" width="641" height="251">
	<title>KillerFont</title>
	<style>
		tspan { white-space:pre }
	</style>
	<path id="KILLER " fill="#ffffff" aria-label="KILLER"  d="M88.85 248L128.4 248L74.85 112.2L128.4 3L89.9 3L39.5 109.75L39.5 3L1 3L1 248L39.5 248L39.5 172.75L51.4 150.35ZM132.95 248L171.45 248L171.45 3L132.95 3ZM186.5 248L288.35 248L288.35 213L225 213L225 3L186.5 3ZM292.2 248L394.05 248L394.05 213L330.7 213L330.7 3L292.2 3ZM436.4 38L502.9 38L502.9 3L397.9 3L397.9 248L502.9 248L502.9 213L436.4 213L436.4 141.25L489.25 141.25L489.25 106.25L436.4 106.25ZM633.45 248C629.6 238.9 629.25 230.15 629.25 218.25L629.25 180.45C629.25 154.9 622.95 136.35 603.7 128.3C620.85 120.25 628.9 103.8 628.9 78.6L628.9 59.35C628.9 21.55 611.75 3 571.85 3L513.75 3L513.75 248L552.25 248L552.25 148.25L565.55 148.25C583.05 148.25 590.75 156.65 590.75 179.4L590.75 217.9C590.75 237.85 592.15 241.7 594.25 248ZM570.8 38C584.45 38 590.4 45.7 590.4 63.2L590.4 87.35C590.4 106.95 581.65 113.25 567.3 113.25L552.25 113.25L552.25 38Z" />
</svg>