<svg version="1.2" baseProfile="tiny-ps" xmlns="http://www.w3.org/2000/svg" viewBox="0 0 965 251" width="965" height="251">
	<path id="settings " fill="#ffffff" aria-label="settings"  d="M3.1 61.8C3.1 131.8 78.35 141.25 78.35 191.65C78.35 209.15 70.65 215.45 58.4 215.45C46.15 215.45 38.45 209.15 38.45 191.65L38.45 174.15L2.05 174.15L2.05 189.2C2.05 228.4 21.65 250.8 59.45 250.8C97.25 250.8 116.85 228.4 116.85 189.2C116.85 119.2 41.6 109.75 41.6 59.35C41.6 41.85 48.6 35.2 60.85 35.2C73.1 35.2 80.1 41.85 80.1 59.35L80.1 69.5L116.5 69.5L116.5 61.8C116.5 22.6 97.25 0.2 59.8 0.2C22.35 0.2 3.1 22.6 3.1 61.8ZM174.95 38L241.45 38L241.45 3L136.45 3L136.45 248L241.45 248L241.45 213L174.95 213L174.95 141.25L227.8 141.25L227.8 106.25L174.95 106.25ZM251.6 38L291.85 38L291.85 248L330.35 248L330.35 38L370.6 38L370.6 3L251.6 3ZM373.75 38L414 38L414 248L452.5 248L452.5 38L492.75 38L492.75 3L373.75 3ZM507.1 248L545.6 248L545.6 3L507.1 3ZM653.4 248L692.95 248L692.95 3L658.65 3L658.65 149.65L619.1 3L570.8 3L570.8 248L605.45 248L605.45 70.55ZM775.9 146.5L793.4 146.5L793.4 191.65C793.4 209.15 785.7 215.45 773.45 215.45C761.2 215.45 753.5 209.15 753.5 191.65L753.5 59.35C753.5 41.85 761.2 35.2 773.45 35.2C785.7 35.2 793.4 41.85 793.4 59.35L793.4 85.6L829.8 85.6L829.8 61.8C829.8 22.6 810.2 0.2 772.4 0.2C734.6 0.2 715 22.6 715 61.8L715 189.2C715 228.4 734.6 250.8 772.4 250.8C810.2 250.8 829.8 228.4 829.8 189.2L829.8 111.5L775.9 111.5ZM847.3 61.8C847.3 131.8 922.55 141.25 922.55 191.65C922.55 209.15 914.85 215.45 902.6 215.45C890.35 215.45 882.65 209.15 882.65 191.65L882.65 174.15L846.25 174.15L846.25 189.2C846.25 228.4 865.85 250.8 903.65 250.8C941.45 250.8 961.05 228.4 961.05 189.2C961.05 119.2 885.8 109.75 885.8 59.35C885.8 41.85 892.8 35.2 905.05 35.2C917.3 35.2 924.3 41.85 924.3 59.35L924.3 69.5L960.7 69.5L960.7 61.8C960.7 22.6 941.45 0.2 904 0.2C866.55 0.2 847.3 22.6 847.3 61.8Z" />
</svg>
